<svg xmlns="http://www.w3.org/2000/svg" viewBox="0 0 900 520">
<rect width="900" height="520" fill="#eee9dc"/>
<path d="M0 110 L900 45 M0 270 L900 180 M0 430 L900 330" stroke="#d4cdbb" stroke-width="26" opacity=".75"/>
<path d="M100 0 C210 100 180 220 330 280 S620 320 900 500" fill="none" stroke="#c8bda5" stroke-width="18"/>
<path d="M20 380 C220 320 280 150 500 190 S720 300 880 90" fill="none" stroke="#c1b69d" stroke-width="10"/>
<g fill="#d6cfbe"><rect x="70" y="60" width="110" height="45"/><rect x="390" y="75" width="160" height="52"/><rect x="610" y="380" width="170" height="50"/></g>
<path d="M450 215 C450 175 510 175 510 215 C510 260 480 290 480 290 S450 260 450 215Z" fill="#b57b24"/>
<circle cx="480" cy="215" r="17" fill="#fff8e8"/>
<text x="520" y="215" font-family="Arial, sans-serif" font-size="28" font-weight="700" fill="#2b261e">Girraj Jewellers</text>
<text x="520" y="250" font-family="Arial, sans-serif" font-size="21" fill="#665d4e">Jaipur, Rajasthan</text>
</svg>